<svg width="1592" height="372" viewBox="0 0 1592 372" fill="none" xmlns="http://www.w3.org/2000/svg">
<g clip-path="url(#clip0_338_2)">
<path fill-rule="evenodd" clip-rule="evenodd" d="M516.761 90.78C525.774 90.78 534.017 92.0676 541.485 94.6429H610.247V122.842L568.526 117.048C573.934 121.683 578.312 127.478 581.659 134.431C585.007 141.126 586.682 149.367 586.682 159.152C586.682 173.059 583.463 184.777 577.024 194.305C570.843 203.834 562.474 211.175 551.915 216.326C541.356 221.219 529.637 223.664 516.761 223.664H510.194C506.846 223.664 503.627 223.534 500.536 223.277C497.446 222.762 494.354 222.248 491.264 221.733C483.796 229.974 480.062 238.086 480.062 246.069C480.062 256.37 487.274 261.521 501.696 261.521H544.961C563.503 261.521 578.054 265.641 588.613 273.882C599.172 282.122 604.452 294.098 604.453 309.807C604.453 328.606 596.727 343.673 581.275 355.004C566.08 366.336 545.091 372 518.307 372C504.915 372 490.879 370.198 476.199 366.593C461.777 362.988 448.127 357.193 435.25 349.21L446.067 324.486C458.944 331.697 471.306 336.72 483.153 339.553C495.257 342.643 506.976 344.188 518.307 344.188C535.819 344.188 549.34 341.356 558.869 335.69C568.398 330.024 573.161 322.426 573.161 312.898C573.161 305.945 570.843 300.537 566.207 296.674C561.572 293.069 554.103 291.264 543.802 291.264H499.377C482.637 291.264 470.532 287.274 463.063 279.291C455.595 271.308 451.862 262.551 451.862 253.023C451.862 246.327 453.406 239.76 456.497 233.321C459.587 226.626 463.967 220.058 469.633 213.62C460.619 208.212 453.407 200.873 447.999 191.602C442.59 182.073 439.885 170.612 439.885 157.221C439.886 142.542 442.977 130.31 449.158 120.524C455.597 110.738 464.096 103.399 474.655 98.5057C485.214 93.3554 497.06 90.78 510.194 90.78H516.761ZM510.194 118.205C499.893 118.205 490.879 121.554 483.153 128.249C475.427 134.687 471.564 144.345 471.564 157.221C471.564 170.355 475.427 180.141 483.153 186.58C490.879 193.018 499.893 196.237 510.194 196.237H516.761C526.805 196.237 535.691 193.018 543.417 186.58C551.143 180.141 555.006 170.355 555.006 157.221C555.006 144.345 551.143 134.687 543.417 128.249C535.691 121.554 526.805 118.205 516.761 118.205H510.194Z" fill="#1E1C1A"/>
<path d="M1278.44 187.739L1298.14 247.229L1317.07 187.739L1348.37 94.6429H1379.65L1305.1 305.172C1296.86 328.349 1286.68 345.218 1274.58 355.776C1262.73 366.592 1246.12 372 1224.75 372V340.712C1233.5 340.455 1240.97 339.294 1247.15 337.234C1253.59 335.174 1259.26 330.924 1264.15 324.486C1269.3 318.306 1274.19 309.035 1278.83 296.674L1282.69 287.017L1213.93 94.6429H1246.38L1278.44 187.739Z" fill="#1E1C1A"/>
<path fill-rule="evenodd" clip-rule="evenodd" d="M77.6498 90.78C90.7837 90.7802 102.76 93.4826 113.576 98.8905C124.65 104.041 133.407 112.026 139.845 122.842C146.541 133.401 149.887 147.051 149.887 163.79C149.887 174.605 148.342 186.966 145.252 200.872H31.2913V201.646C31.2914 221.218 35.284 236.026 43.2676 246.069C51.5087 256.113 64.6426 261.133 82.6696 261.134C90.9108 261.134 99.9267 260.106 109.713 258.045C119.756 255.985 129.542 252.766 139.07 248.388L148.728 274.656C137.139 280.321 125.55 284.185 113.961 286.245C102.372 288.562 91.6838 289.72 81.8975 289.72C54.3412 289.72 33.739 281.865 20.0896 266.156C6.69783 250.447 0.000155233 228.944 0 201.646V178.467C0.000196358 151.942 6.69785 130.696 20.0896 114.729C33.7391 98.7627 52.9264 90.78 77.6498 90.78ZM77.6498 118.592C62.7126 118.592 51.3785 123.485 43.6524 133.272C36.1842 142.8 32.0639 156.32 31.2913 173.832H117.824C118.596 169.197 118.983 164.819 118.983 160.699C118.983 146.277 114.863 135.717 106.622 129.021C98.6389 122.068 88.9809 118.592 77.6498 118.592Z" fill="#1E1C1A"/>
<path d="M1056.36 94.6429H1118.94V122.455H1056.36V225.596C1056.36 238.987 1058.55 248.257 1062.93 253.408C1067.56 258.301 1074.65 260.749 1084.18 260.749C1088.81 260.749 1093.58 260.232 1098.47 259.202C1103.62 257.915 1109.16 255.856 1115.08 253.023L1124.74 278.904C1110.32 286.114 1094.99 289.72 1078.77 289.72C1064.86 289.72 1053.92 286.888 1045.93 281.223C1038.21 275.557 1032.67 267.959 1029.32 258.43C1026.23 248.902 1024.68 238.344 1024.68 226.755V122.455H991.464V94.6429H1024.68V41.3347H1056.36V94.6429Z" fill="#1E1C1A"/>
<path d="M309.781 285.857H278.105V94.6429H309.781V285.857Z" fill="#1E1C1A"/>
<path d="M757.249 120.136C770.64 108.805 782.746 101.08 793.562 96.9591C804.378 92.8389 814.937 90.7801 825.238 90.78C843.008 90.78 856.531 96.4443 865.802 107.776C875.331 118.849 880.095 134.688 880.095 155.289V285.857H848.416V159.927C848.416 133.659 838.115 120.524 817.512 120.524C810.301 120.524 801.802 122.325 792.015 125.931C782.487 129.536 770.898 136.877 757.249 147.951V285.857H725.572V0H757.249V120.136Z" fill="#1E1C1A"/>
<path fill-rule="evenodd" clip-rule="evenodd" d="M1531.35 19.3144C1549.12 19.3144 1563.67 25.109 1575 36.6973C1586.33 48.2861 1592 63.3528 1592 81.8949C1592 93.9981 1589.42 104.814 1584.27 114.342C1579.12 123.87 1571.91 131.339 1562.64 136.747C1553.63 141.898 1543.2 144.473 1531.35 144.473C1513.32 144.473 1498.64 138.679 1487.31 127.09C1476.24 115.244 1470.7 100.179 1470.7 81.8949C1470.7 63.3528 1476.24 48.2861 1487.31 36.6973C1498.64 25.1092 1513.32 19.3145 1531.35 19.3144ZM1531.35 43.2662C1520.79 43.2663 1512.16 46.7423 1505.47 53.6954C1499.03 60.6487 1495.81 70.0486 1495.81 81.8949C1495.81 93.741 1499.03 103.141 1505.47 110.094C1512.16 117.047 1520.79 120.523 1531.35 120.524C1541.91 120.524 1550.41 117.047 1556.85 110.094C1563.54 103.141 1566.89 93.741 1566.89 81.8949C1566.89 70.0486 1563.54 60.6487 1556.85 53.6954C1550.41 46.7421 1541.91 43.2662 1531.35 43.2662Z" fill="#1E1C1A"/>
<path d="M311.713 47.9011H276.174V12.3607H311.713V47.9011Z" fill="#1E1C1A"/>
</g>
<defs>
<clipPath id="clip0_338_2">
<rect width="1592" height="372" fill="white"/>
</clipPath>
</defs>
</svg>
