<svg width="1195" height="795" viewBox="0 0 1195 795" fill="none" xmlns="http://www.w3.org/2000/svg">
<path d="M1186 199C1186 94.0659 1100.93 9 996 9C891.066 9 806 94.0659 806 199C806 303.934 891.066 389 996 389V398C886.095 398 797 308.905 797 199C797 89.0953 886.095 0 996 0C1105.9 0 1195 89.0953 1195 199C1195 308.905 1105.9 398 996 398V389C1100.93 389 1186 303.934 1186 199Z" fill="#766044"/>
<path d="M389 199C389 94.0659 303.934 9 199 9C94.0659 9 9 94.0659 9 199C9 303.934 94.0659 389 199 389V398C89.0953 398 0 308.905 0 199C0 89.0953 89.0953 0 199 0C308.905 0 398 89.0953 398 199C398 308.905 308.905 398 199 398V389C303.934 389 389 303.934 389 199Z" fill="#766044"/>
<path d="M389 595.5C389 490.268 303.913 405 199 405C94.0872 405 9 490.268 9 595.5C9 700.732 94.0872 786 199 786V795C89.0953 795 0 705.681 0 595.5C0 485.319 89.0953 396 199 396C308.905 396 398 485.319 398 595.5C398 705.681 308.905 795 199 795V786C303.913 786 389 700.732 389 595.5Z" fill="#766044"/>
<path d="M788 595.5V199.5C788 94.2898 702.71 9 597.5 9C492.29 9 407 94.2898 407 199.5V595.5C407 700.71 492.29 786 597.5 786V795C487.319 795 398 705.681 398 595.5V199.5C398 89.3192 487.319 0 597.5 0C707.681 0 797 89.3192 797 199.5V595.5L796.996 596.79C796.302 706.377 707.25 795 597.5 795V786C702.71 786 788 700.71 788 595.5Z" fill="#766044"/>
</svg>
