<svg width="267" height="16" viewBox="0 0 267 16" fill="none" xmlns="http://www.w3.org/2000/svg">
<path d="M264.646 11.7547V9.48852H266.894V11.7547H264.646Z" fill="#1E1C1A"/>
<path d="M247.721 11.7547V10.5203H249.803V4.95614H247.721V3.72171H251.019V5.54572C251.351 4.73505 252.125 3.53747 253.82 3.53747C254.446 3.53747 255.017 3.70329 255.22 3.79541V5.28778C254.981 5.17723 254.446 5.04826 253.857 5.04826C252.456 5.04826 251.683 5.76681 251.259 6.37481V10.5203H254.741V11.7547H247.721Z" fill="#1E1C1A"/>
<path d="M236.766 11.939C234.629 11.939 232.768 10.7782 232.768 7.75663C232.768 4.5508 234.813 3.53747 236.674 3.53747C238.48 3.53747 240.598 4.51396 240.598 7.73821V8.033H234.224C234.297 9.78331 235.126 10.7414 236.803 10.7414C238.074 10.7414 238.922 10.1886 239.106 9.17531H240.58C240.248 11.3125 238.314 11.939 236.766 11.939ZM234.242 6.92754H239.106C238.922 5.47202 238.001 4.71662 236.674 4.71662C235.348 4.71662 234.426 5.47202 234.242 6.92754Z" fill="#1E1C1A"/>
<path d="M221.297 11.7547L217.833 3.72171H219.418L221.15 8.01457L222.144 10.5756L223.139 8.05142L224.908 3.72171H226.419L222.955 11.7547H221.297Z" fill="#1E1C1A"/>
<path d="M207.541 11.939C205.68 11.939 203.672 10.9625 203.672 7.75663C203.672 4.47711 205.772 3.53747 207.615 3.53747C209.457 3.53747 211.484 4.47711 211.484 7.70136C211.484 10.9993 209.365 11.939 207.541 11.939ZM207.578 10.7229C209.163 10.7229 210.029 9.74646 210.029 7.73821C210.029 5.71154 209.163 4.75347 207.578 4.75347C205.994 4.75347 205.128 5.71154 205.128 7.73821C205.128 9.74646 205.994 10.7229 207.578 10.7229Z" fill="#1E1C1A"/>
<path d="M193.141 11.939C191.243 11.939 189.124 11.0362 189.124 7.73821C189.124 4.40341 191.335 3.53747 193.141 3.53747C194.688 3.53747 196.586 4.16389 196.733 6.55906H195.278C195.13 5.21408 194.301 4.80875 193.177 4.80875C191.538 4.80875 190.616 5.71154 190.616 7.73821C190.616 9.78331 191.538 10.6677 193.177 10.6677C194.301 10.6677 195.13 10.2623 195.278 8.91737H196.733C196.586 11.2941 194.633 11.939 193.141 11.939Z" fill="#1E1C1A"/>
<path d="M178.574 11.939C176.437 11.939 174.576 10.7782 174.576 7.75663C174.576 4.5508 176.621 3.53747 178.482 3.53747C180.288 3.53747 182.406 4.51396 182.406 7.73821V8.033H176.032C176.105 9.78331 176.934 10.7414 178.611 10.7414C179.882 10.7414 180.73 10.1886 180.914 9.17531H182.388C182.056 11.3125 180.122 11.939 178.574 11.939ZM176.05 6.92754H180.914C180.73 5.47202 179.809 4.71662 178.482 4.71662C177.155 4.71662 176.234 5.47202 176.05 6.92754Z" fill="#1E1C1A"/>
<path d="M160.433 11.7547V10.5203H162.515V4.95614H160.433V3.72171H163.731V5.54572C164.063 4.73505 164.837 3.53747 166.532 3.53747C167.158 3.53747 167.729 3.70329 167.932 3.79541V5.28778C167.693 5.17723 167.158 5.04826 166.569 5.04826C165.168 5.04826 164.395 5.76681 163.971 6.37481V10.5203H167.453V11.7547H160.433Z" fill="#1E1C1A"/>
<path d="M134.801 11.939C132.94 11.939 130.932 10.9625 130.932 7.75663C130.932 4.47711 133.032 3.53747 134.875 3.53747C136.717 3.53747 138.744 4.47711 138.744 7.70136C138.744 10.9993 136.625 11.939 134.801 11.939ZM134.838 10.7229C136.423 10.7229 137.288 9.74646 137.288 7.73821C137.288 5.71154 136.423 4.75347 134.838 4.75347C133.254 4.75347 132.388 5.71154 132.388 7.73821C132.388 9.74646 133.254 10.7229 134.838 10.7229Z" fill="#1E1C1A"/>
<path d="M121.635 11.939C119.7 11.939 118.632 11.2204 118.632 8.49361V4.95614H115.997V3.72171H118.632V0H120.087V3.72171H124.03V4.95614H120.087V8.43833C120.087 10.0781 120.437 10.6861 121.838 10.6861C122.648 10.6861 123.293 10.5203 123.791 10.336V11.5705C123.533 11.6994 122.759 11.939 121.635 11.939Z" fill="#1E1C1A"/>
<path d="M91.2861 11.939C89.1489 11.939 87.288 10.7782 87.288 7.75663C87.288 4.5508 89.3331 3.53747 91.194 3.53747C92.9996 3.53747 95.1184 4.51396 95.1184 7.73821V8.033H88.7435C88.8172 9.78331 89.6463 10.7414 91.323 10.7414C92.5942 10.7414 93.4417 10.1886 93.626 9.17531H95.0999C94.7683 11.3125 92.8337 11.939 91.2861 11.939ZM88.762 6.92754H93.626C93.4417 5.47202 92.5205 4.71662 91.194 4.71662C89.8674 4.71662 88.9462 5.47202 88.762 6.92754Z" fill="#1E1C1A"/>
<path d="M76.7566 11.939C74.8588 11.939 72.7401 11.0362 72.7401 7.73821C72.7401 4.40341 74.951 3.53747 76.7566 3.53747C78.3042 3.53747 80.2019 4.16389 80.3493 6.55906H78.8938C78.7464 5.21408 77.9173 4.80875 76.7934 4.80875C75.1536 4.80875 74.2324 5.71154 74.2324 7.73821C74.2324 9.78331 75.1536 10.6677 76.7934 10.6677C77.9173 10.6677 78.7464 10.2623 78.8938 8.91737H80.3493C80.2019 11.2941 78.2489 11.939 76.7566 11.939Z" fill="#1E1C1A"/>
<path d="M60.9557 11.939C59.408 11.939 58.192 11.2573 58.192 9.67276C58.192 7.81191 59.8318 7.3513 61.3794 7.3513C62.1532 7.3513 63.1113 7.48027 63.6825 7.66451V6.96439C63.6825 5.72996 63.5166 4.75347 61.7848 4.75347C60.4582 4.75347 59.7765 5.32463 59.7765 6.43009H58.3763C58.3763 4.12705 60.274 3.53747 61.8953 3.53747C64.0141 3.53747 65.138 4.56923 65.138 6.6696V10.3176C65.138 10.6308 65.2485 10.7414 65.5802 10.7414C65.8381 10.7414 66.1882 10.6861 66.483 10.6124V11.6442C66.1882 11.7731 65.6539 11.939 65.0827 11.939C64.1246 11.939 63.8851 11.3862 63.8851 10.8519V10.7045C63.4614 11.2573 62.5586 11.939 60.9557 11.939ZM61.1952 10.7045C62.2638 10.7045 63.0929 10.3729 63.6825 9.94913V8.69627C63.2403 8.58573 62.4665 8.49361 61.6558 8.49361C60.4029 8.49361 59.6475 8.75155 59.6475 9.63591C59.6475 10.3545 60.145 10.7045 61.1952 10.7045Z" fill="#1E1C1A"/>
<path d="M44.0494 11.7547V10.5203H46.8315V1.216H44.0494V0H48.287V10.5203H51.069V11.7547H44.0494Z" fill="#1E1C1A"/>
<path d="M29.7224 15.0711V3.72171H30.9384V4.75347C31.3622 4.20074 32.2097 3.53747 33.5547 3.53747C35.2681 3.53747 36.9079 4.6982 36.9079 7.73821C36.9079 10.6677 35.3234 11.939 33.5547 11.939C32.3387 11.939 31.5096 11.331 31.1779 10.944V15.0711H29.7224ZM33.1678 10.7229C34.7522 10.7229 35.4339 9.50694 35.4339 7.73821C35.4339 5.96948 34.7522 4.75347 33.1678 4.75347C32.2834 4.75347 31.6201 5.12196 31.1779 5.56414V9.91228C31.6201 10.3545 32.2834 10.7229 33.1678 10.7229Z" fill="#1E1C1A"/>
<path d="M2.76365 11.939C1.216 11.939 0 11.2573 0 9.67276C0 7.81191 1.63976 7.3513 3.18741 7.3513C3.96123 7.3513 4.91929 7.48027 5.49044 7.66451V6.96439C5.49044 5.72996 5.32463 4.75347 3.59274 4.75347C2.26619 4.75347 1.58449 5.32463 1.58449 6.43009H0.184243C0.184243 4.12705 2.08195 3.53747 3.70329 3.53747C5.82208 3.53747 6.94597 4.56923 6.94597 6.6696V10.3176C6.94597 10.6308 7.05651 10.7414 7.38815 10.7414C7.64609 10.7414 7.99615 10.6861 8.29094 10.6124V11.6442C7.99615 11.7731 7.46185 11.939 6.89069 11.939C5.93263 11.939 5.69311 11.3862 5.69311 10.8519V10.7045C5.26935 11.2573 4.36656 11.939 2.76365 11.939ZM3.00316 10.7045C4.07177 10.7045 4.90087 10.3729 5.49044 9.94913V8.69627C5.04826 8.58573 4.27444 8.49361 3.46377 8.49361C2.21092 8.49361 1.45552 8.75155 1.45552 9.63591C1.45552 10.3545 1.95298 10.7045 3.00316 10.7045Z" fill="#1E1C1A"/>
</svg>
