<svg viewBox="0 0 12.3643 22.4082" fill="none" xmlns="http://www.w3.org/2000/svg">
    <g id="facebook-2--media-facebook-social">
        <path id="Vector" d="M7.74999 6.40802C7.74999 4.81406 8.54587 4.81406 9.34175 4.81406H10.2968C10.4563 4.81621 10.6145 4.78633 10.7623 4.72621C10.91 4.6661 11.0443 4.57695 11.157 4.46403C11.2698 4.35111 11.3588 4.21672 11.4188 4.06876C11.4788 3.92082 11.5087 3.76233 11.5065 3.60266V2.10433C11.5065 1.9439 11.4747 1.78507 11.4129 1.63704C11.3512 1.48902 11.2606 1.35476 11.1466 1.24206C11.0327 1.12936 10.8974 1.04046 10.7487 0.98053C10.6001 0.920597 10.4411 0.890821 10.2809 0.892933L8.02059 0.861053C7.36244 0.835563 6.7066 0.953381 6.09836 1.20638C5.4901 1.45937 4.94391 1.84152 4.49749 2.32645C4.05106 2.81138 3.71502 3.38753 3.51258 4.01515C3.31013 4.64277 3.24609 5.3069 3.32488 5.9617V8.27295H2.06739C1.74655 8.27295 1.43885 8.40057 1.21197 8.62775C0.985099 8.85494 0.857647 9.16306 0.857647 9.48434V10.9827C0.857647 11.304 0.985099 11.6121 1.21197 11.8393C1.43885 12.0664 1.74655 12.1941 2.06739 12.1941H3.32488V20.7536C3.32488 20.965 3.40874 21.1678 3.558 21.3172C3.70726 21.4667 3.90968 21.5506 4.12076 21.5506H7.00186C7.20455 21.5383 7.39493 21.449 7.53402 21.3008C7.67309 21.1528 7.75035 20.957 7.74999 20.7536V12.1941H9.15074C9.47159 12.1941 9.7793 12.0664 10.0062 11.8393C10.233 11.6121 10.3605 11.304 10.3605 10.9827V9.48434C10.3605 9.16306 10.233 8.85494 10.0062 8.62775C9.7793 8.40057 9.47159 8.27295 9.15074 8.27295H7.74999V6.40802Z" stroke="currentColour" stroke-width="1.71529" stroke-linecap="round" stroke-linejoin="round"/>
    </g>
</svg>
