<svg preserveAspectRatio="none" width="100%" height="100%" overflow="visible" style="display: block;" viewBox="0 0 22.2859 22.2857" fill="none" xmlns="http://www.w3.org/2000/svg">
<g id="instagram">
<path id="Rectangle 2" d="M0.857153 5.26532C0.857153 2.83076 2.83076 0.857153 5.26534 0.857153H17.0205C19.4551 0.857153 21.4288 2.83076 21.4288 5.26532V17.0205C21.4288 19.4549 19.4551 21.4286 17.0205 21.4286H5.26534C2.83076 21.4286 0.857153 19.4549 0.857153 17.0205V5.26532Z" stroke="var(--stroke-0, #766044)" stroke-width="1.71431" stroke-linecap="round" stroke-linejoin="round"/>
<g id="Group 4546">
<path id="Vector" d="M17.0744 5.41063C16.8377 5.41063 16.6459 5.21875 16.6459 4.98206C16.6459 4.74537 16.8377 4.55349 17.0744 4.55349" stroke="var(--stroke-0, #766044)" stroke-width="1.71431" stroke-linecap="round" stroke-linejoin="round"/>
<path id="Vector_2" d="M17.0744 5.41067C17.3109 5.41067 17.5029 5.21879 17.5029 4.9821C17.5029 4.74541 17.3109 4.55353 17.0744 4.55353" stroke="var(--stroke-0, #766044)" stroke-width="1.71431" stroke-linecap="round" stroke-linejoin="round"/>
</g>
<path id="Ellipse 11" d="M7.10437 12.8159C6.88469 12.2855 6.77162 11.7171 6.77162 11.143C6.77162 9.98366 7.23218 8.87177 8.05198 8.05196C8.87178 7.23216 9.98367 6.7716 11.143 6.7716C12.3024 6.7716 13.4143 7.23216 14.2341 8.05196C15.0539 8.87177 15.5145 9.98366 15.5145 11.143C15.5145 11.7171 15.4014 12.2855 15.1817 12.8159C14.962 13.3463 14.64 13.8282 14.2341 14.2341C13.8282 14.64 13.3463 14.962 12.8159 15.1817C12.2856 15.4014 11.7171 15.5145 11.143 15.5145C10.569 15.5145 10.0005 15.4014 9.47017 15.1817C8.93981 14.962 8.4579 14.64 8.05198 14.2341C7.64605 13.8282 7.32406 13.3463 7.10437 12.8159Z" stroke="var(--stroke-0, #766044)" stroke-width="1.71431" stroke-linecap="round" stroke-linejoin="round"/>
</g>
</svg>
