<svg preserveAspectRatio="none" width="100%" height="100%" overflow="visible" style="display: block;" viewBox="0 0 193 45.1013" fill="none" xmlns="http://www.w3.org/2000/svg">
<g id="eighty&#194;&#176;">
<path id="Vector" d="M185.647 17.5176C183.462 17.5176 181.682 16.8151 180.308 15.4101C178.966 13.9739 178.294 12.1474 178.294 9.93059C178.294 7.68258 178.966 5.85607 180.308 4.45106C181.682 3.04605 183.462 2.34355 185.647 2.34355C187.801 2.34355 189.566 3.04605 190.939 4.45106C192.313 5.85607 193 7.68258 193 9.93059C193 11.398 192.688 12.7094 192.063 13.8646C191.439 15.0198 190.565 15.9253 189.441 16.581C188.348 17.2054 187.083 17.5176 185.647 17.5176ZM185.647 14.6139C186.927 14.6139 187.958 14.1924 188.738 13.3494C189.55 12.5064 189.956 11.3668 189.956 9.93059C189.956 8.49436 189.55 7.35474 188.738 6.51174C187.958 5.66874 186.927 5.24723 185.647 5.24723C184.367 5.24723 183.321 5.66874 182.509 6.51174C181.729 7.35474 181.338 8.49436 181.338 9.93059C181.338 11.3668 181.729 12.5064 182.509 13.3494C183.321 14.1924 184.367 14.6139 185.647 14.6139Z" fill="var(--fill-0, #766044)"/>
<path id="Vector_2" d="M158.223 36.9966C157.224 39.8067 155.991 41.8517 154.523 43.1318C153.087 44.4432 151.073 45.0988 148.482 45.0988V41.3053C149.543 41.2741 150.449 41.1336 151.198 40.8838C151.978 40.6341 152.665 40.1189 153.259 39.3383C153.883 38.589 154.476 37.465 155.038 35.9663L155.507 34.7955L147.17 11.4724H151.104L154.991 22.7593L157.38 29.9716L159.675 22.7593L163.468 11.4724H167.262L158.223 36.9966Z" fill="var(--fill-0, #766044)"/>
<path id="Vector_3" d="M136.358 33.8134C134.609 34.6876 132.752 35.1247 130.784 35.1247C129.098 35.1247 127.772 34.7813 126.804 34.0944C125.867 33.4075 125.196 32.4864 124.79 31.3312C124.415 30.176 124.228 28.8958 124.228 27.4908V14.8458H120.2V11.4738H124.228V5.01074H128.068V11.4738H135.655V14.8458H128.068V27.3503C128.068 28.9739 128.334 30.0979 128.864 30.7223C129.426 31.3156 130.285 31.6122 131.44 31.6122C132.002 31.6122 132.58 31.5497 133.173 31.4249C133.797 31.2687 134.469 31.019 135.187 30.6755L136.358 33.8134Z" fill="var(--fill-0, #766044)"/>
<path id="Vector_4" d="M99.1057 14.6121C98.2315 14.6121 97.2012 14.8306 96.0147 15.2677C94.8595 15.7048 93.4545 16.5947 91.7997 17.9372V34.6568H87.9594V0H91.7997V14.5652C93.4233 13.1914 94.8907 12.2548 96.2021 11.7552C97.5134 11.2557 98.7935 11.0059 100.042 11.0059C102.197 11.0059 103.836 11.6928 104.96 13.0666C106.115 14.4091 106.693 16.3293 106.693 18.8271V34.6568H102.852V19.3891C102.852 16.2044 101.604 14.6121 99.1057 14.6121Z" fill="var(--fill-0, #766044)"/>
<path id="Vector_5" d="M73.2803 37.5611C73.2803 39.8403 72.3436 41.6668 70.4703 43.0406C68.6281 44.4144 66.0835 45.1013 62.8364 45.1013C61.2128 45.1013 59.5112 44.8828 57.7315 44.4456C55.9831 44.0085 54.3283 43.306 52.7672 42.3381L54.0785 39.3408C55.6396 40.215 57.1383 40.8238 58.5745 41.1673C60.042 41.542 61.4626 41.7293 62.8364 41.7293C64.9595 41.7293 66.5987 41.3859 67.7539 40.699C68.9092 40.0121 69.4868 39.091 69.4868 37.9358C69.4868 37.0928 69.2058 36.4371 68.6438 35.9688C68.0818 35.5317 67.1763 35.3131 65.9274 35.3131H60.5416C58.5121 35.3131 57.0447 34.8292 56.1392 33.8613C55.2338 32.8934 54.781 31.8318 54.781 30.6766C54.781 29.8648 54.9684 29.0686 55.343 28.2881C55.7177 27.4763 56.2485 26.6801 56.9354 25.8996C55.8426 25.2439 54.9684 24.3541 54.3127 23.23C53.657 22.0748 53.3292 20.6854 53.3292 19.0619C53.3292 17.2822 53.7039 15.7991 54.4532 14.6127C55.2338 13.4262 56.2641 12.5364 57.5442 11.9432C58.8243 11.3187 60.2606 11.0065 61.8529 11.0065H62.6491C63.7419 11.0065 64.741 11.1626 65.6464 11.4748H73.9828V14.8937L68.9248 14.1912C69.5804 14.7532 70.1112 15.4557 70.5171 16.2987C70.923 17.1105 71.1259 18.1096 71.1259 19.296C71.1259 20.982 70.7357 22.4027 69.9551 23.5579C69.2058 24.7131 68.191 25.6029 66.9109 26.2274C65.6308 26.8206 64.2102 27.1172 62.6491 27.1172H61.8529C61.447 27.1172 61.0567 27.1016 60.6821 27.0704C60.3074 27.008 59.9327 26.9455 59.5581 26.8831C58.6526 27.8822 58.1999 28.8657 58.1999 29.8336C58.1999 31.0825 59.0741 31.7069 60.8226 31.7069H66.0679C68.3159 31.7069 70.08 32.2065 71.3601 33.2056C72.6402 34.2047 73.2803 35.6565 73.2803 37.5611ZM62.6491 23.792C63.8667 23.792 64.9439 23.4018 65.8806 22.6212C66.8173 21.8407 67.2856 20.6542 67.2856 19.0619C67.2856 17.5007 66.8173 16.3299 65.8806 15.5493C64.9439 14.7376 63.8667 14.3317 62.6491 14.3317H61.8529C60.604 14.3317 59.5112 14.7376 58.5745 15.5493C57.6379 16.3299 57.1695 17.5007 57.1695 19.0619C57.1695 20.6542 57.6379 21.8407 58.5745 22.6212C59.5112 23.4018 60.604 23.792 61.8529 23.792H62.6491Z" fill="var(--fill-0, #766044)"/>
<path id="Vector_6" d="M37.7941 5.80586H33.4855V1.49718H37.7941V5.80586ZM37.56 34.6553H33.7196V11.4727H37.56V34.6553Z" fill="var(--fill-0, #766044)"/>
<path id="Vector_7" d="M18.0309 33.2993C16.6259 33.9861 15.2209 34.4545 13.8159 34.7043C12.4109 34.9853 11.1152 35.1258 9.92871 35.1258C6.58792 35.1258 4.09013 34.1735 2.43534 32.2689C0.811781 30.3644 0 27.7573 0 24.4477V21.6377C0 18.4218 0.811781 15.846 2.43534 13.9102C4.09013 11.9744 6.41619 11.0065 9.41354 11.0065C11.0059 11.0065 12.4577 11.3343 13.7691 11.99C15.1116 12.6144 16.1732 13.5823 16.9537 14.8937C17.7655 16.1738 18.1714 17.8286 18.1714 19.858C18.1714 21.1694 17.9841 22.668 17.6094 24.354H3.79352V24.4477C3.79352 26.8206 4.27746 28.6159 5.24536 29.8336C6.24447 31.0512 7.83681 31.6601 10.0224 31.6601C11.0215 31.6601 12.1143 31.5352 13.3007 31.2854C14.5184 31.0356 15.7048 30.6454 16.8601 30.1146L18.0309 33.2993ZM9.41354 14.3785C7.60264 14.3785 6.22886 14.9717 5.29219 16.1582C4.38674 17.3134 3.88718 18.9526 3.79352 21.0757H14.2842C14.3779 20.5137 14.4247 19.9829 14.4247 19.4834C14.4247 17.7349 13.9252 16.4548 12.9261 15.643C11.9582 14.8 10.7873 14.3785 9.41354 14.3785Z" fill="var(--fill-0, #766044)"/>
</g>
</svg>
