<svg preserveAspectRatio="none" width="100%" height="100%" overflow="visible" style="display: block;" viewBox="0 0 113 26.4065" fill="none" xmlns="http://www.w3.org/2000/svg">
<g id="eighty&#194;&#176;">
<path id="Vector" d="M108.695 10.2564C107.415 10.2564 106.373 9.84514 105.569 9.02252C104.783 8.18162 104.39 7.11221 104.39 5.8143C104.39 4.49811 104.783 3.4287 105.569 2.60608C106.373 1.78346 107.415 1.37215 108.695 1.37215C109.956 1.37215 110.989 1.78346 111.793 2.60608C112.598 3.4287 113 4.49811 113 5.8143C113 6.67348 112.817 7.44126 112.452 8.11763C112.086 8.79401 111.574 9.32414 110.916 9.70803C110.276 10.0736 109.536 10.2564 108.695 10.2564ZM108.695 8.55637C109.444 8.55637 110.048 8.30958 110.505 7.81601C110.98 7.32243 111.218 6.6552 111.218 5.8143C111.218 4.9734 110.98 4.30616 110.505 3.81259C110.048 3.31902 109.444 3.07223 108.695 3.07223C107.945 3.07223 107.333 3.31902 106.858 3.81259C106.401 4.30616 106.172 4.9734 106.172 5.8143C106.172 6.6552 106.401 7.32243 106.858 7.81601C107.333 8.30958 107.945 8.55637 108.695 8.55637Z" fill="var(--fill-0, #766044)"/>
<path id="Vector_2" d="M92.6383 21.6613C92.0533 23.3065 91.3313 24.5039 90.4721 25.2534C89.6312 26.0211 88.4521 26.405 86.9348 26.405V24.184C87.5563 24.1657 88.0865 24.0834 88.5252 23.9372C88.9822 23.7909 89.3844 23.4893 89.7317 23.0323C90.0973 22.5936 90.4446 21.9355 90.7737 21.058L91.0479 20.3725L86.167 6.71698H88.4704L90.7463 13.3254L92.1447 17.5481L93.4883 13.3254L95.7094 6.71698H97.9305L92.6383 21.6613Z" fill="var(--fill-0, #766044)"/>
<path id="Vector_3" d="M79.8363 19.7975C78.8126 20.3093 77.7249 20.5653 76.5732 20.5653C75.5861 20.5653 74.8092 20.3642 74.2425 19.962C73.6941 19.5598 73.301 19.0206 73.0634 18.3442C72.844 17.6678 72.7343 16.9183 72.7343 16.0957V8.6921H70.3762V6.71781H72.7343V2.93376H74.9828V6.71781H79.425V8.6921H74.9828V16.0134C74.9828 16.964 75.1382 17.6221 75.449 17.9877C75.778 18.335 76.2807 18.5087 76.9571 18.5087C77.2862 18.5087 77.6244 18.4721 77.9717 18.399C78.3373 18.3076 78.7303 18.1614 79.1508 17.9603L79.8363 19.7975Z" fill="var(--fill-0, #766044)"/>
<path id="Vector_4" d="M58.0257 8.55525C57.5138 8.55525 56.9106 8.68321 56.2159 8.93914C55.5395 9.19506 54.7169 9.71606 53.7481 10.5021V20.2913H51.4996V0H53.7481V8.52783C54.6986 7.72349 55.5578 7.17507 56.3256 6.88259C57.0934 6.5901 57.8429 6.44386 58.5741 6.44386C59.8354 6.44386 60.7952 6.84603 61.4533 7.65037C62.1296 8.43643 62.4678 9.56067 62.4678 11.0231V20.2913H60.2193V11.3522C60.2193 9.48755 59.4881 8.55525 58.0257 8.55525Z" fill="var(--fill-0, #766044)"/>
<path id="Vector_5" d="M42.9049 21.9917C42.9049 23.3262 42.3565 24.3956 41.2597 25.2C40.1811 26.0043 38.6913 26.4065 36.7901 26.4065C35.8395 26.4065 34.8433 26.2785 33.8013 26.0226C32.7776 25.7666 31.8087 25.3553 30.8947 24.7886L31.6625 23.0337C32.5765 23.5456 33.4539 23.902 34.2948 24.1031C35.154 24.3225 35.9858 24.4322 36.7901 24.4322C38.0332 24.4322 38.9929 24.2311 39.6693 23.8289C40.3457 23.4268 40.6839 22.8875 40.6839 22.2111C40.6839 21.7175 40.5193 21.3336 40.1903 21.0594C39.8612 20.8035 39.3311 20.6755 38.5999 20.6755H35.4465C34.2583 20.6755 33.3991 20.3922 32.869 19.8255C32.3388 19.2588 32.0738 18.6373 32.0738 17.9609C32.0738 17.4856 32.1835 17.0195 32.4028 16.5624C32.6222 16.0872 32.9329 15.621 33.3351 15.164C32.6953 14.7801 32.1835 14.2591 31.7996 13.601C31.4157 12.9246 31.2237 12.1112 31.2237 11.1606C31.2237 10.1186 31.4431 9.25027 31.8818 8.55561C32.3388 7.86095 32.9421 7.33996 33.6916 6.99263C34.4411 6.62702 35.282 6.44422 36.2143 6.44422H36.6804C37.3203 6.44422 37.9052 6.53562 38.4354 6.71842H43.3162V8.72013L40.3548 8.30882C40.7387 8.63787 41.0495 9.04918 41.2871 9.54275C41.5248 10.018 41.6436 10.603 41.6436 11.2977C41.6436 12.2848 41.4151 13.1166 40.9581 13.793C40.5193 14.4693 39.9252 14.9903 39.1757 15.3559C38.4262 15.7033 37.5945 15.8769 36.6804 15.8769H36.2143C35.9766 15.8769 35.7481 15.8678 35.5288 15.8495C35.3094 15.8129 35.09 15.7764 34.8707 15.7398C34.3405 16.3248 34.0755 16.9006 34.0755 17.4673C34.0755 18.1985 34.5873 18.5642 35.611 18.5642H38.6822C39.9983 18.5642 41.0312 18.8566 41.7807 19.4416C42.5302 20.0266 42.9049 20.8766 42.9049 21.9917ZM36.6804 13.9301C37.3934 13.9301 38.0241 13.7016 38.5725 13.2445C39.1209 12.7875 39.3951 12.0929 39.3951 11.1606C39.3951 10.2465 39.1209 9.56103 38.5725 9.10402C38.0241 8.62873 37.3934 8.39108 36.6804 8.39108H36.2143C35.4831 8.39108 34.8433 8.62873 34.2948 9.10402C33.7464 9.56103 33.4722 10.2465 33.4722 11.1606C33.4722 12.0929 33.7464 12.7875 34.2948 13.2445C34.8433 13.7016 35.4831 13.9301 36.2143 13.9301H36.6804Z" fill="var(--fill-0, #766044)"/>
<path id="Vector_6" d="M22.1281 3.3993H19.6054V0.876596H22.1281V3.3993ZM21.991 20.2904H19.7425V6.7172H21.991V20.2904Z" fill="var(--fill-0, #766044)"/>
<path id="Vector_7" d="M10.557 19.4965C9.73434 19.8986 8.91172 20.1728 8.0891 20.3191C7.26648 20.4836 6.50784 20.5659 5.81318 20.5659C3.85717 20.5659 2.39474 20.0083 1.42587 18.8932C0.475292 17.7781 0 16.2517 0 14.3139V12.6687C0 10.7858 0.475292 9.27769 1.42587 8.1443C2.39474 7.01091 3.75663 6.44422 5.51155 6.44422C6.44386 6.44422 7.2939 6.63616 8.06168 7.02005C8.84774 7.38566 9.46927 7.95235 9.92628 8.72013C10.4016 9.46963 10.6392 10.4385 10.6392 11.6267C10.6392 12.3945 10.5295 13.272 10.3102 14.2591H2.22107V14.3139C2.22107 15.7033 2.50442 16.7544 3.07112 17.4673C3.65609 18.1803 4.58839 18.5367 5.86802 18.5367C6.453 18.5367 7.09281 18.4636 7.78747 18.3174C8.50041 18.1711 9.19507 17.9426 9.87144 17.6319L10.557 19.4965ZM5.51155 8.4185C4.45129 8.4185 3.64695 8.76583 3.09854 9.46049C2.5684 10.1369 2.27592 11.0966 2.22107 12.3397H8.3633C8.41815 12.0106 8.44557 11.6998 8.44557 11.4074C8.44557 10.3837 8.15308 9.63415 7.56811 9.15886C7.00141 8.66529 6.31589 8.4185 5.51155 8.4185Z" fill="var(--fill-0, #766044)"/>
</g>
</svg>
